<svg width="900" height="900" viewBox="0 0 900 900" fill="none" xmlns="http://www.w3.org/2000/svg">
<circle cx="450" cy="450" r="450" fill="#8915A6"/>
<path d="M265 717L367.702 231H484.688C520.962 231 549.982 236.445 571.746 247.336C593.964 258.227 610.061 273.655 620.037 293.622C630.012 313.134 635 335.824 635 361.689C635 417.504 616.183 459.933 578.548 488.975C541.366 517.563 489.222 531.857 422.114 531.857H376.544L337.096 717H265ZM430.956 471.277C470.858 471.277 502.598 462.429 526.176 444.731C549.755 427.034 561.544 400.261 561.544 364.412C561.544 339.454 554.516 321.303 540.46 309.958C526.857 298.613 505.999 292.941 477.886 292.941H426.875L389.467 471.277H430.956Z" fill="white"/>
</svg>
